<mxfile host="app.diagrams.net" modified="2023-05-13T19:03:51.713Z" agent="Mozilla/5.0 (Linux; Android 10; K) AppleWebKit/537.36 (KHTML, like Gecko) Chrome/113.0.0.0 Safari/537.36" version="21.3.0" etag="bvSxW_qd5Ov2ZXQV5eYk" type="github">
  <diagram name="Seite-1" id="GVVQay4_3D29ff4SFxmS">
    <mxGraphModel>
      <root>
        <mxCell id="0" />
        <mxCell id="1" parent="0" />
      </root>
    </mxGraphModel>
  </diagram>
</mxfile>
